<?xml version="1.0" standalone="no"?>
<!DOCTYPE svg PUBLIC "-//W3C//DTD SVG 20010904//EN"
 "http://www.w3.org/TR/2001/REC-SVG-20010904/DTD/svg10.dtd">
<svg version="1.0" xmlns="http://www.w3.org/2000/svg"
 width="792.000000pt" height="792.000000pt" viewBox="0 0 792.000000 792.000000"
 preserveAspectRatio="xMidYMid meet">
<metadata>
Created by potrace 1.14, written by Peter Selinger 2001-2017
</metadata>
<g transform="translate(0.000000,792.000000) scale(0.100000,-0.100000)"
fill="#000000" stroke="none">
<path d="M3275 7804 c-118 -25 -145 -34 -247 -83 -255 -120 -461 -340 -609
-650 -86 -180 -125 -217 -319 -306 -545 -248 -930 -496 -1226 -790 -188 -187
-302 -364 -359 -557 -10 -36 -39 -88 -77 -140 -33 -46 -85 -125 -115 -176 -48
-81 -76 -138 -150 -302 -8 -19 -18 -42 -22 -50 -4 -8 -24 -69 -43 -135 -92
-313 -103 -391 -103 -730 0 -294 16 -445 67 -625 173 -615 567 -1249 1087
-1753 355 -343 735 -610 1199 -841 442 -221 857 -366 1402 -491 58 -14 317
-65 326 -65 2 0 4 7 4 15 0 9 -61 75 -136 148 -75 72 -173 175 -216 227 -165
196 -343 497 -398 675 -12 39 -26 79 -30 90 -12 30 -29 96 -34 135 -3 19 -11
65 -16 102 -6 36 -9 108 -8 160 l3 93 35 -49 c143 -202 275 -350 405 -456 220
-178 393 -246 690 -270 311 -24 561 29 765 165 133 89 218 204 267 365 26 82
26 92 24 318 -3 326 10 386 95 447 77 55 149 136 186 208 29 58 30 65 26 166
-4 125 -24 175 -114 290 -30 38 -63 89 -73 113 -38 86 -107 166 -163 187 l-24
9 4 219 c4 195 2 230 -18 338 -31 164 -43 178 -86 93 -38 -75 -83 -138 -98
-138 -9 0 -16 19 -20 58 -11 109 -37 238 -62 315 -18 55 -44 63 -70 20 -59
-98 -101 -153 -116 -153 -14 0 -17 17 -21 138 -2 75 -10 157 -17 182 -29 109
-27 122 33 202 95 128 229 238 290 238 l30 0 -6 -68 c-6 -70 -41 -197 -58
-208 -5 -3 -9 -13 -9 -22 0 -9 -14 -46 -30 -82 -15 -35 -26 -68 -24 -72 8 -12
32 -10 67 6 18 7 60 24 95 36 34 13 88 38 120 57 31 19 70 37 86 40 26 6 28 4
21 -18 -4 -13 -27 -66 -51 -118 -49 -104 -52 -121 -26 -121 50 0 271 127 461
264 l93 68 -5 -39 c-2 -21 -8 -48 -12 -60 -17 -53 54 -13 205 116 150 128 298
295 455 515 83 116 101 136 123 136 28 0 185 56 251 89 20 10 70 21 111 25
100 9 219 49 292 100 60 40 146 144 147 177 1 8 5 19 9 25 31 34 39 224 17
385 -14 95 26 168 148 275 102 88 159 169 191 270 30 93 32 135 8 229 -37 148
-167 282 -406 419 -66 39 -90 91 -76 167 23 116 -17 245 -103 329 -36 36 -59
49 -109 62 -100 27 -314 50 -393 43 -144 -13 -328 -45 -399 -70 -40 -14 -84
-25 -98 -25 -14 0 -58 -14 -97 -30 -154 -66 -349 -77 -526 -30 -127 34 -218
53 -365 75 -131 21 -471 20 -610 -1 -58 -8 -123 -18 -145 -21 -22 -3 -44 -9
-50 -14 -5 -5 -20 -9 -35 -9 -14 0 -52 -9 -84 -20 -68 -23 -121 -25 -156 -7
-71 37 -137 51 -240 52 -91 0 -109 3 -135 21 -41 29 -121 67 -175 82 -25 8
-59 18 -76 23 -44 13 -278 9 -349 -7z m2845 -2074 c192 -9 432 -37 460 -55 37
-23 -55 -291 -158 -459 -20 -34 -45 -77 -55 -97 -10 -19 -52 -79 -93 -132 -76
-98 -111 -123 -100 -69 20 100 37 225 34 258 l-3 39 -49 -90 c-89 -164 -218
-336 -320 -426 -51 -44 -54 -24 -18 128 17 71 32 146 34 168 3 34 0 40 -18 43
-16 2 -28 -8 -47 -41 -60 -103 -310 -357 -351 -357 -2 0 27 91 65 202 38 111
69 210 69 220 0 27 -37 22 -79 -9 -19 -16 -62 -45 -96 -66 -55 -34 -60 -35
-63 -18 -2 11 13 73 32 138 36 121 66 249 66 284 0 12 -7 19 -20 19 -11 0 -20
-4 -20 -8 0 -5 -43 -62 -95 -127 -92 -116 -165 -189 -214 -215 -23 -12 -24
-11 -18 16 20 97 30 226 21 271 -13 68 -31 61 -136 -48 -115 -119 -124 -118
-120 14 3 100 0 107 -38 87 -22 -12 -148 -187 -183 -255 -37 -72 -98 -223
-112 -275 -8 -33 -16 -45 -30 -45 -14 0 -21 10 -27 40 -21 101 -38 242 -38
321 0 69 -3 85 -14 82 -33 -7 -284 -349 -332 -450 -10 -21 -21 -38 -26 -38
-37 0 47 203 145 352 92 141 257 312 278 291 7 -7 6 -46 -2 -119 -6 -60 -9
-149 -6 -199 9 -152 26 -162 67 -39 37 109 117 284 172 374 l46 75 103 43 c57
23 150 64 207 92 130 63 173 70 442 71 178 1 289 6 410 17 8 1 112 -3 230 -8z
m-2104 -445 c10 -24 -14 -69 -63 -122 -130 -139 -280 -337 -298 -394 -8 -25
-29 -20 -33 8 -4 25 91 219 147 302 64 94 198 221 234 221 4 0 10 -7 13 -15z
m-369 -50 c-6 -19 -16 -35 -22 -35 -36 0 -180 -201 -216 -302 -19 -52 -24 -57
-37 -45 -33 34 53 225 149 330 54 60 114 101 130 91 4 -2 2 -20 -4 -39z m1047
-1197 c27 -123 36 -207 42 -373 7 -199 8 -209 34 -195 24 13 136 168 166 231
13 27 30 49 38 49 30 0 35 -141 10 -305 -8 -59 -13 -113 -10 -121 14 -37 60 1
183 154 36 46 43 28 32 -83 -27 -260 -57 -406 -104 -507 -16 -35 -25 -71 -25
-105 0 -46 -4 -58 -36 -92 -31 -35 -45 -42 -127 -61 -51 -12 -131 -25 -178
-27 -99 -6 -349 22 -391 43 -55 29 -138 182 -183 339 -44 152 -64 154 -100 8
-26 -108 -36 -110 -85 -13 -62 123 -102 251 -108 348 -3 52 -1 82 5 82 6 0 29
-74 51 -164 44 -177 64 -231 93 -247 22 -11 18 -22 52 121 28 112 76 241 94
247 6 2 13 -16 17 -39 30 -192 134 -468 176 -468 22 0 60 69 60 108 0 16 7 37
15 48 15 19 15 18 36 -6 27 -32 67 -111 89 -175 19 -57 35 -65 73 -35 28 22
117 138 156 203 22 36 22 37 2 37 -11 0 -40 -13 -64 -30 -70 -47 -74 -44 -79
63 -5 113 -26 160 -102 229 -34 30 -56 60 -64 85 -11 36 -9 43 28 118 36 73
97 241 129 355 7 25 17 55 22 68 5 13 9 36 9 52 0 16 5 32 10 35 6 3 10 26 10
51 0 24 2 44 4 44 2 0 11 -33 20 -72z m-1092 -151 c-26 -52 -40 -336 -22 -442
11 -68 52 -220 70 -260 9 -19 14 -55 11 -82 -5 -55 -69 71 -106 208 -21 81
-25 115 -25 244 0 112 5 170 19 228 11 47 15 80 9 83 -5 4 3 19 19 36 29 30
43 22 25 -15z"/>
<path d="M4666 3862 c-3 -5 -22 -57 -42 -114 -20 -56 -58 -152 -85 -213 -60
-135 -61 -155 -12 -192 83 -63 123 -130 142 -238 4 -24 13 -41 22 -43 9 -1 51
32 95 75 69 68 82 86 97 138 49 167 71 315 48 315 -10 0 -61 -57 -61 -68 0
-13 -135 -152 -148 -152 -9 0 -12 33 -12 128 0 135 -17 337 -30 361 -4 9 -10
10 -14 3z"/>
<path d="M5019 3244 l-101 -99 6 -44 c3 -24 11 -60 17 -81 11 -37 12 -38 64
-36 l53 1 21 67 c11 37 30 112 42 168 33 145 24 147 -102 24z"/>
</g>
</svg>
